<svg xmlns="http://www.w3.org/2000/svg" viewBox="0 0 126.94 183.93"><defs><style>.cls-1,.cls-2{fill:none;stroke-miterlimit:10;stroke-width:11.67px}.cls-1{stroke:#3b97d3}.cls-2{stroke:#e54d3c}.cls-3{fill:#e54d3c}.cls-4{fill:#3b97d3}.cls-5{fill:#50ba6f}.cls-6{fill:#f8962e}.cls-7{fill:#925ea7}.cls-8{fill:#fabf13}.cls-9{fill:#8797ca}</style></defs><title>Asset 6</title><g id="Layer_2" data-name="Layer 2"><g id="Layer_1-2" data-name="Layer 1"><path d="M6.07.36V39.6S2.62,87.49,58.8,92l8.51.4s50.54,1.07,53.76,55.39v35.92" class="cls-1"/><path d="M121.06,0V39.49s3.47,48-52.83,52.51l-8.53.4S9.06,93.48,5.84,147.9v36" class="cls-2"/><rect width="25.59" height="5.04" x="30.58" y="20.36" class="cls-3"/><rect width="20.33" height="5.04" x="61.99" y="20.36" class="cls-4"/><rect width="25.59" height="5.04" x="30.58" y="29.76" class="cls-5"/><rect width="30.64" height="5.04" x="30.58" y="39.15" class="cls-3"/><rect width="16.4" height="5.04" x="65.93" y="39.15" class="cls-6"/><rect width="42.47" height="5.04" x="30.58" y="48.65" class="cls-5"/><rect width="21.96" height="5.04" x="76.97" y="48.65" class="cls-7"/><rect width="5.04" height="5.04" x="47.69" y="58.27" class="cls-4"/><rect width="36.91" height="5.04" x="61.97" y="58.27" class="cls-6"/><rect width="12.37" height="5.04" x="30.62" y="58.27" class="cls-4"/><rect width="68.34" height="5.04" x="30.58" y="1.19" class="cls-8"/><rect width="18.25" height="5.04" x="42.73" y="10.96" class="cls-9"/><rect width="7.39" height="5.04" x="30.58" y="10.96" class="cls-3"/><rect width="33.8" height="5.04" x="65.13" y="10.96" class="cls-3"/><rect width="36.96" height="5.04" x="61.97" y="29.76" class="cls-9"/><rect width="25.59" height="5.04" x="30.58" y="159.48" class="cls-3"/><rect width="20.33" height="5.04" x="61.99" y="159.48" class="cls-4"/><rect width="25.59" height="5.04" x="30.58" y="150.08" class="cls-5"/><rect width="30.64" height="5.04" x="30.58" y="140.68" class="cls-3"/><rect width="16.4" height="5.04" x="65.93" y="140.68" class="cls-6"/><rect width="42.47" height="5.04" x="30.58" y="131.18" class="cls-5"/><rect width="21.96" height="5.04" x="76.97" y="131.18" class="cls-7"/><rect width="5.04" height="5.04" x="47.69" y="121.57" class="cls-4"/><rect width="36.91" height="5.04" x="61.97" y="121.57" class="cls-6"/><rect width="12.37" height="5.04" x="30.62" y="121.57" class="cls-4"/><rect width="68.34" height="5.04" x="30.58" y="178.64" class="cls-8"/><rect width="18.25" height="5.04" x="42.73" y="168.87" class="cls-9"/><rect width="7.39" height="5.04" x="30.58" y="168.87" class="cls-3"/><rect width="33.8" height="5.04" x="65.13" y="168.87" class="cls-3"/><rect width="36.96" height="5.04" x="61.97" y="150.08" class="cls-9"/></g></g></svg>